# Blender 4.4.3
# www.blender.org
o Cube
v 1.261833 -1.313783 -2.579620
v 1.261833 1.273557 -2.579620
v 2.268017 2.268016 2.414418
v 2.268017 -2.268016 2.414418
v 2.156614 -2.156614 2.143493
v 1.746520 -1.746520 0.467764
v 2.113373 -2.113372 2.032530
v 2.069428 -2.069428 1.908347
v 2.025532 -2.025532 1.773072
v 1.982437 -1.982437 1.629017
v 1.940878 -1.940878 1.478647
v 1.901568 -1.901567 1.324536
v 1.865178 -1.865178 1.169321
v 1.832332 -1.832332 1.015657
v 1.803591 -1.803591 0.866173
v 1.779448 -1.779448 0.723428
v 1.760315 -1.760315 0.589863
v 1.746520 1.422891 0.467764
v 2.155672 2.072503 2.141203
v 1.760307 1.438735 0.589843
v 1.779416 1.463981 0.723350
v 1.803520 1.498195 0.865999
v 1.832206 1.540792 1.015350
v 1.864984 1.591045 1.168848
v 1.901292 1.648092 1.323866
v 1.940510 1.710958 1.477751
v 1.981966 1.778567 1.627872
v 2.024951 1.849762 1.771658
v 2.068730 1.923325 1.906650
v 2.112554 1.997998 2.030539
v 2.268017 2.268016 3.258786
v 2.215473 2.215473 3.311329
v 2.267568 2.267567 3.265644
v 2.266227 2.266226 3.272385
v 2.264017 2.264017 3.278893
v 2.260978 2.260977 3.285058
v 2.257159 2.257159 3.290772
v 2.252627 2.252627 3.295940
v 2.247460 2.247459 3.300472
v 2.241745 2.241745 3.304290
v 2.235581 2.235580 3.307330
v 2.229073 2.229072 3.309539
v 2.222332 2.222331 3.310880
v 2.215473 -2.215473 3.311329
v 2.268017 -2.268016 3.258786
v 2.222332 -2.222331 3.310880
v 2.229073 -2.229072 3.309539
v 2.235581 -2.235580 3.307330
v 2.241745 -2.241745 3.304290
v 2.247460 -2.247459 3.300472
v 2.252627 -2.252627 3.295940
v 2.257159 -2.257159 3.290772
v 2.260978 -2.260977 3.285058
v 2.264017 -2.264017 3.278893
v 2.266227 -2.266226 3.272385
v 2.267568 -2.267567 3.265644
v 1.604604 1.628388 3.054533
v 1.604604 -1.595137 3.054533
v 0.000000 -2.268016 2.414418
v 2.269205 -3.981451 2.044247
v 0.000000 -1.865178 1.169321
v 0.000000 -1.901567 1.324537
v 0.000000 -1.940878 1.478647
v 0.000000 -1.982437 1.629017
v 0.000000 -2.025532 1.773072
v 0.000000 -2.069428 1.908348
v 0.000000 -2.113372 2.032530
v 0.000000 -2.156614 2.143494
v -1.746520 1.422891 0.467765
v -1.760307 1.438735 0.589844
v -1.779416 1.463981 0.723350
v -1.803520 1.498195 0.866000
v -1.832206 1.540792 1.015351
v -1.864983 1.591045 1.168849
v -1.901291 1.648092 1.323866
v -1.940509 1.710958 1.477752
v -1.981965 1.778567 1.627872
v -2.024951 1.849762 1.771659
v -2.068729 1.923325 1.906651
v -2.112553 1.997998 2.030540
v -2.155671 2.072503 2.141204
v 0.000001 -2.268016 3.258786
v 0.000001 -2.267567 3.265645
v 0.000001 -2.266226 3.272386
v 0.000001 -2.264017 3.278894
v 0.000001 -2.260977 3.285058
v 0.000001 -2.257159 3.290773
v 0.000001 -2.252627 3.295940
v 0.000001 -2.247459 3.300472
v 0.000001 -2.241745 3.304290
v 0.000001 -2.235580 3.307330
v 0.000001 -2.229072 3.309540
v 0.000001 -2.222331 3.310880
v 0.000001 -2.215473 3.311330
v 0.000001 2.267567 3.265645
v 0.000001 2.266226 3.272386
v 0.000001 2.264017 3.278894
v 0.000001 2.260977 3.285058
v 0.000001 2.257159 3.290773
v 0.000001 2.252627 3.295940
v 0.000001 2.247459 3.300472
v 0.000001 2.241745 3.304290
v 0.000001 2.235580 3.307330
v 0.000001 2.229072 3.309540
v 0.000001 2.222332 3.310880
v 0.000001 2.215473 3.311330
v -1.604603 -1.595137 3.054534
v -1.604603 1.628388 3.054534
v 1.628649 -1.585445 -0.767038
v 1.628649 1.348224 -0.767038
v 1.134009 -2.268016 2.414418
v 1.134009 -2.268016 3.258786
v 1.133672 2.267567 3.265645
v 1.132666 2.266226 3.272385
v 1.131009 2.264017 3.278894
v 1.128729 2.260977 3.285058
v 1.125865 2.257159 3.290773
v 1.122467 2.252627 3.295940
v 1.118591 2.247459 3.300472
v 1.114305 2.241745 3.304290
v 1.109682 2.235580 3.307330
v 1.104801 2.229072 3.309539
v 1.099745 2.222331 3.310880
v 1.094601 2.215473 3.311329
v 0.932589 -1.865178 1.169321
v 0.950784 -1.901567 1.324537
v 0.970439 -1.940878 1.478647
v 0.991219 -1.982437 1.629017
v 1.012766 -2.025532 1.773072
v 1.034714 -2.069428 1.908348
v 1.056687 -2.113372 2.032530
v 1.078307 -2.156614 2.143494
v 1.133672 -2.267567 3.265645
v 1.132666 -2.266226 3.272385
v 1.131009 -2.264017 3.278894
v 1.128729 -2.260977 3.285058
v 1.125865 -2.257159 3.290773
v 1.122467 -2.252627 3.295940
v 1.118591 -2.247459 3.300472
v 1.114305 -2.241745 3.304290
v 1.109682 -2.235580 3.307330
v 1.104801 -2.229072 3.309539
v 1.099745 -2.222331 3.310880
v 1.094601 -2.215473 3.311329
v 0.000000 -4.048863 2.214599
v -0.000000 -4.048863 -1.131313
v 2.057095 -3.899739 -1.131313
v 1.209233 -3.131555 1.431765
v 0.916166 -2.735614 1.043621
v 0.000000 -2.735618 1.043622
v -0.000000 -3.141466 -0.942247
v -0.000000 -2.735610 -0.737468
v 0.814324 -2.735607 -0.737469
v 1.099965 -3.140260 -0.939684
v 0.000000 -2.100107 1.023947
v -0.000000 -1.852606 -0.760169
v -0.000000 -1.551199 -1.029567
v 1.157979 -1.785012 0.746147
v 0.916166 -2.100233 1.023951
v 1.067169 -1.551199 -1.029568
v 0.814324 -1.852706 -0.760167
v 2.493225 -6.654717 2.438605
v 0.000000 -6.845955 2.541531
v -0.000000 -6.269527 -1.162357
v 2.591244 -6.654717 -1.162358
v 2.078607 -8.898790 2.013554
v 0.000000 -8.898790 2.013554
v -0.000000 -8.898790 -0.737023
v 2.060493 -8.898790 -0.737023
v 2.993745 -11.971546 2.347239
v 0.000000 -13.348495 2.334892
v -0.000000 -13.348495 -1.277684
v 3.147462 -12.058084 -1.001790
v 3.462273 -4.165081 -0.610599
v 3.462273 -4.165081 1.441557
v 3.462273 -5.879310 -0.610599
v 3.462273 -5.879310 1.441557
v 8.015147 -4.474484 -0.059935
v 8.015147 -4.474484 0.890891
v 8.015147 -5.428487 -0.059935
v 8.015147 -5.428487 0.890891
v 13.932140 -4.574362 0.047892
v 13.932140 -4.574362 0.783063
v 13.932140 -5.004093 0.047892
v 13.932140 -5.004093 0.783063
v 14.697278 -4.419922 -0.357781
v 14.697278 -4.419922 1.188735
v 14.697278 -4.899015 -0.357781
v 14.697278 -4.899015 1.188735
v 15.722600 -4.419922 -0.357781
v 15.722600 -4.419922 1.188735
v 15.722600 -4.741240 -0.357781
v 15.722600 -4.741240 1.188735
v 16.604551 -4.614642 0.023886
v 16.604551 -4.614642 0.807068
v 16.604551 -4.737075 0.023886
v 16.604551 -4.737075 0.807068
v 8.300664 -4.359313 -0.280892
v 8.300664 -5.516383 -0.280892
v 8.300664 -4.359313 1.111848
v 8.300664 -5.516383 1.111848
v 2.961984 -15.260651 2.068350
v 0.534606 -15.422343 2.089936
v 0.456728 -15.422343 -0.665991
v 3.108775 -15.343289 -0.402529
v 2.595166 -19.057737 2.104516
v 1.140379 -19.219431 2.126102
v 1.062501 -18.325924 -0.209726
v 2.741957 -18.246870 0.053736
v 2.595166 -19.710390 2.104516
v 1.140379 -19.872084 2.126102
v 1.062501 -20.171785 -0.105867
v 2.741957 -20.092731 0.157595
v 2.620942 -20.983177 1.831685
v 1.166155 -20.983177 1.853271
v 1.088277 -20.983177 -0.281916
v 2.767733 -20.983177 -0.018454
v 2.620942 -25.172117 1.388245
v 1.166155 -25.172117 1.409831
v 1.088277 -25.395779 -0.138365
v 2.767733 -25.395779 0.125097
v 2.620942 -26.282059 1.388245
v 1.166155 -26.282059 1.409831
v 1.088277 -26.282059 -0.138365
v 2.767733 -26.282059 0.125097
v 2.395062 -26.031181 3.910017
v 1.165147 -26.031181 4.204187
v 2.395062 -26.282059 3.910017
v 1.165147 -26.282059 4.204187
v 2.764037 -25.849686 3.364096
v 2.764037 -26.282059 3.364096
v 1.004334 -25.849686 3.601940
v 1.004334 -26.282059 3.601940
v -1.261834 -1.313783 -2.579619
v -1.261834 1.273557 -2.579619
v -2.268016 2.268016 2.414419
v -2.268016 -2.268016 2.414419
v -2.156613 -2.156614 2.143494
v -1.746520 -1.746520 0.467765
v -2.113372 -2.113372 2.032531
v -2.069427 -2.069428 1.908348
v -2.025532 -2.025532 1.773072
v -1.982436 -1.982437 1.629017
v -1.940878 -1.940878 1.478648
v -1.901567 -1.901567 1.324537
v -1.865178 -1.865178 1.169322
v -1.832332 -1.832332 1.015658
v -1.803591 -1.803591 0.866174
v -1.779448 -1.779448 0.723428
v -1.760315 -1.760315 0.589863
v -2.268015 2.268016 3.258787
v -2.215472 2.215473 3.311330
v -2.267566 2.267567 3.265645
v -2.266225 2.266226 3.272386
v -2.264016 2.264017 3.278894
v -2.260976 2.260977 3.285058
v -2.257158 2.257159 3.290773
v -2.252626 2.252627 3.295941
v -2.247459 2.247459 3.300472
v -2.241744 2.241745 3.304291
v -2.235580 2.235580 3.307331
v -2.229071 2.229072 3.309540
v -2.222331 2.222331 3.310881
v -2.215472 -2.215473 3.311330
v -2.268015 -2.268016 3.258787
v -2.222331 -2.222331 3.310881
v -2.229071 -2.229072 3.309540
v -2.235580 -2.235580 3.307331
v -2.241744 -2.241745 3.304291
v -2.247459 -2.247459 3.300472
v -2.252626 -2.252627 3.295941
v -2.257158 -2.257159 3.290773
v -2.260976 -2.260977 3.285058
v -2.264016 -2.264017 3.278894
v -2.266225 -2.266226 3.272386
v -2.267566 -2.267567 3.265645
v -2.269204 -3.981451 2.044248
v 0.000001 -2.235580 3.307330
v 0.000001 -2.222331 3.310880
v 0.000001 -2.215473 3.311330
v -1.628649 -1.585445 -0.767037
v -1.628649 1.348224 -0.767037
v -1.134008 -2.268016 2.414418
v -1.134007 -2.268016 3.258786
v -1.133671 2.267567 3.265645
v -1.132665 2.266226 3.272386
v -1.131008 2.264017 3.278894
v -1.128728 2.260977 3.285058
v -1.125864 2.257159 3.290773
v -1.122465 2.252627 3.295940
v -1.118590 2.247459 3.300472
v -1.114304 2.241745 3.304291
v -1.109681 2.235580 3.307330
v -1.104800 2.229072 3.309540
v -1.099744 2.222331 3.310881
v -1.094600 2.215473 3.311330
v -0.932589 -1.865178 1.169322
v -0.950783 -1.901567 1.324537
v -0.970439 -1.940878 1.478648
v -0.991218 -1.982437 1.629017
v -1.012766 -2.025532 1.773072
v -1.034714 -2.069428 1.908348
v -1.056686 -2.113372 2.032531
v -1.078306 -2.156614 2.143494
v -1.133671 -2.267567 3.265645
v -1.132665 -2.266226 3.272386
v -1.131008 -2.264017 3.278894
v -1.128728 -2.260977 3.285058
v -1.125864 -2.257159 3.290773
v -1.122465 -2.252627 3.295940
v -1.118590 -2.247459 3.300472
v -1.114304 -2.241745 3.304291
v -1.109681 -2.235580 3.307330
v -1.104799 -2.229072 3.309540
v -1.099744 -2.222331 3.310881
v -1.094600 -2.215473 3.311330
v -2.057095 -3.899739 -1.131313
v -1.209233 -3.131555 1.431765
v -0.916166 -2.735614 1.043622
v -0.814325 -2.735607 -0.737468
v -1.099966 -3.140260 -0.939684
v -1.151682 -1.772469 0.661808
v -0.916166 -2.100233 1.023951
v -1.067170 -1.551199 -1.029567
v -0.814325 -1.852706 -0.760167
v -2.493224 -6.654717 2.438606
v -2.591244 -6.654717 -1.162357
v -2.078606 -8.898790 2.013555
v -2.060494 -8.898790 -0.737023
v -2.993744 -11.971546 2.347240
v -3.147463 -12.058084 -1.001789
v -3.462273 -4.165081 -0.610598
v -3.462273 -4.165081 1.441558
v -3.462273 -5.879310 -0.610598
v -3.462273 -5.879310 1.441558
v -8.015147 -4.474484 -0.059932
v -8.015147 -4.474484 0.890895
v -8.015147 -5.428487 -0.059932
v -8.015147 -5.428487 0.890895
v -13.932140 -4.574362 0.047897
v -13.932140 -4.574362 0.783068
v -13.932140 -5.004093 0.047897
v -13.932140 -5.004093 0.783068
v -14.697278 -4.419922 -0.357775
v -14.697278 -4.419922 1.188741
v -14.697278 -4.899015 -0.357775
v -14.697278 -4.899015 1.188741
v -15.722600 -4.419922 -0.357775
v -15.722600 -4.419922 1.188741
v -15.722600 -4.741240 -0.357775
v -15.722600 -4.741240 1.188741
v -16.604551 -4.614642 0.023892
v -16.604551 -4.614642 0.807074
v -16.604551 -4.737075 0.023892
v -16.604551 -4.737075 0.807074
v -8.300664 -4.359313 -0.280889
v -8.300664 -5.516383 -0.280889
v -8.300664 -4.359313 1.111851
v -8.300664 -5.516383 1.111851
v -2.961983 -15.260651 2.068351
v -0.534606 -15.422343 2.089936
v -0.456729 -15.422343 -0.665991
v -3.108775 -15.343289 -0.402527
v -2.595165 -19.057737 2.104517
v -1.140378 -19.219431 2.126102
v -1.062501 -18.325924 -0.209726
v -2.741957 -18.246870 0.053737
v -2.595165 -19.710390 2.104517
v -1.140378 -19.872084 2.126102
v -1.062501 -20.171785 -0.105867
v -2.741957 -20.092731 0.157596
v -2.620941 -20.983177 1.831686
v -1.166155 -20.983177 1.853271
v -1.088277 -20.983177 -0.281916
v -2.767733 -20.983177 -0.018453
v -2.620941 -25.172117 1.388246
v -1.166155 -25.172117 1.409832
v -1.088277 -25.395779 -0.138364
v -2.767733 -25.395779 0.125099
v -2.620941 -26.282059 1.388246
v -1.166155 -26.282059 1.409832
v -1.088277 -26.282059 -0.138364
v -2.767733 -26.282059 0.125099
v -2.395061 -26.031181 3.910018
v -1.165146 -26.031181 4.204187
v -2.395061 -26.282059 3.910018
v -1.165146 -26.282059 4.204187
v -2.764036 -25.849686 3.364097
v -2.764036 -26.282059 3.364097
v -1.004333 -25.849686 3.601940
v -1.004333 -26.282059 3.601940
s 0
f 19 4 5
f 109 18 6
f 4 112 111
f 5 30 19
f 7 29 30
f 8 28 29
f 9 27 28
f 10 26 27
f 11 25 26
f 12 24 25
f 13 23 24
f 14 22 23
f 15 21 22
f 16 20 21
f 17 18 20
f 14 13 125
f 13 126 125
f 12 127 126
f 11 128 127
f 10 129 128
f 9 130 129
f 8 131 130
f 7 132 131
f 5 111 132
f 44 43 32
f 46 42 43
f 47 41 42
f 48 40 41
f 49 39 40
f 50 38 39
f 51 37 38
f 52 36 37
f 53 35 36
f 54 34 35
f 55 33 34
f 56 31 33
f 112 56 133
f 133 55 134
f 134 54 135
f 135 53 136
f 136 52 137
f 137 51 138
f 138 50 139
f 139 49 140
f 140 48 141
f 141 47 142
f 142 46 143
f 143 44 144
f 3 45 4
f 32 58 44
f 144 58 107
f 105 124 123
f 104 123 122
f 103 122 121
f 102 121 120
f 101 120 119
f 100 119 118
f 99 118 117
f 98 117 116
f 97 116 115
f 96 115 114
f 95 114 113
f 31 95 113
f 124 106 108
f 148 145 60
f 161 152 156
f 1 110 109
f 69 20 18
f 70 21 20
f 71 22 21
f 72 23 22
f 73 24 23
f 74 25 24
f 75 26 25
f 76 27 26
f 77 28 27
f 78 29 28
f 79 30 29
f 80 19 30
f 124 57 32
f 31 113 33
f 113 34 33
f 114 35 34
f 115 36 35
f 116 37 36
f 117 38 37
f 118 39 38
f 119 40 39
f 120 41 40
f 121 42 41
f 122 43 42
f 123 32 43
f 57 107 58
f 94 144 107
f 93 144 94
f 91 142 92
f 90 141 91
f 89 140 90
f 88 139 89
f 87 138 88
f 86 137 87
f 85 136 86
f 84 135 85
f 83 134 84
f 82 133 83
f 132 59 68
f 131 68 67
f 130 67 66
f 129 66 65
f 128 65 64
f 127 64 63
f 126 63 62
f 125 62 61
f 148 147 154
f 154 146 151
f 111 82 59
f 15 158 16
f 15 14 125
f 17 16 158
f 151 153 154
f 159 150 149
f 147 164 146
f 162 169 165
f 145 162 60
f 147 176 165
f 145 164 163
f 168 171 167
f 163 168 167
f 164 169 168
f 163 166 162
f 172 205 204
f 168 173 172
f 167 170 166
f 169 170 173
f 174 180 176
f 60 177 175
f 165 177 162
f 147 175 174
f 198 184 199
f 174 179 178
f 175 181 179
f 176 181 177
f 183 189 187
f 200 182 198
f 200 185 183
f 199 185 201
f 187 193 191
f 184 189 185
f 182 188 184
f 182 187 186
f 192 194 196
f 188 193 189
f 186 192 188
f 186 191 190
f 195 196 194
f 191 194 190
f 193 195 191
f 192 197 193
f 180 201 181
f 179 201 200
f 178 200 198
f 178 199 180
f 202 209 205
f 171 202 170
f 170 205 173
f 171 204 203
f 203 208 207
f 205 208 204
f 203 206 202
f 207 210 206
f 206 213 209
f 207 212 211
f 208 213 212
f 211 214 210
f 217 218 221
f 213 214 217
f 212 215 211
f 212 217 216
f 221 224 220
f 216 219 215
f 217 220 216
f 214 219 218
f 223 225 222
f 231 226 228
f 221 222 225
f 220 223 219
f 227 228 226
f 232 226 230
f 233 227 232
f 233 228 229
f 223 231 233
f 223 232 219
f 219 230 218
f 222 230 231
f 154 149 148
f 149 150 148
f 153 159 149
f 61 159 125
f 125 158 15
f 6 17 158
f 109 6 160
f 125 159 158
f 160 158 161
f 159 161 158
f 160 161 157
f 161 156 157
f 234 2 1
f 237 81 238
f 281 69 282
f 284 237 283
f 80 238 81
f 79 240 80
f 78 241 79
f 77 242 78
f 76 243 77
f 75 244 76
f 74 245 75
f 73 246 74
f 72 247 73
f 71 248 72
f 70 249 71
f 69 250 70
f 298 246 297
f 299 245 298
f 300 244 299
f 301 243 300
f 302 242 301
f 303 241 302
f 304 240 303
f 283 238 304
f 252 266 264
f 263 267 266
f 261 267 262
f 260 268 261
f 259 269 260
f 258 270 259
f 257 271 258
f 257 273 272
f 255 273 256
f 255 275 274
f 253 275 254
f 251 276 253
f 284 276 265
f 305 275 276
f 306 274 275
f 307 273 274
f 308 272 273
f 309 271 272
f 310 270 271
f 311 269 270
f 312 268 269
f 313 267 268
f 314 266 267
f 315 264 266
f 265 236 237
f 107 252 264
f 316 107 264
f 296 105 295
f 295 104 294
f 294 103 293
f 293 102 292
f 292 101 291
f 291 100 290
f 290 99 289
f 289 98 288
f 288 97 287
f 287 96 286
f 286 95 285
f 251 95 31
f 296 108 106
f 251 3 236
f 318 277 145
f 152 325 156
f 234 282 235
f 19 236 3
f 110 235 282
f 282 18 110
f 252 108 296
f 251 253 285
f 254 285 253
f 255 286 254
f 256 287 255
f 257 288 256
f 258 289 257
f 259 290 258
f 260 291 259
f 261 292 260
f 262 293 261
f 263 294 262
f 252 295 263
f 280 107 316
f 279 316 315
f 278 314 313
f 90 313 312
f 89 312 311
f 88 311 310
f 87 310 309
f 86 309 308
f 85 308 307
f 84 307 306
f 83 306 305
f 82 305 284
f 59 304 68
f 68 303 67
f 67 302 66
f 66 301 65
f 65 300 64
f 64 299 63
f 63 298 62
f 62 297 61
f 317 318 321
f 146 321 151
f 82 283 59
f 160 6 158
f 109 160 1
f 320 151 321
f 323 150 155
f 164 317 146
f 329 326 327
f 326 145 277
f 334 317 327
f 164 329 327
f 328 163 326
f 172 363 331
f 168 331 329
f 330 167 328
f 329 330 328
f 338 332 334
f 277 335 326
f 335 327 326
f 317 333 277
f 342 356 357
f 336 333 332
f 333 339 335
f 335 338 334
f 341 347 343
f 340 358 356
f 358 343 359
f 359 342 357
f 345 351 347
f 347 342 343
f 346 340 342
f 344 341 340
f 350 352 348
f 351 346 347
f 350 344 346
f 348 345 344
f 354 353 352
f 352 349 348
f 353 351 349
f 351 354 350
f 359 338 339
f 337 359 339
f 336 358 337
f 357 336 338
f 367 360 363
f 360 171 330
f 363 330 331
f 171 362 172
f 361 366 362
f 366 363 362
f 364 361 360
f 368 365 364
f 371 364 367
f 365 370 366
f 366 371 367
f 372 369 368
f 375 376 372
f 371 372 368
f 373 370 369
f 370 375 371
f 382 379 378
f 377 374 373
f 378 375 374
f 372 377 373
f 381 383 382
f 389 384 388
f 379 380 376
f 381 378 377
f 386 385 384
f 384 390 388
f 385 391 390
f 391 386 389
f 381 389 380
f 390 381 377
f 388 377 376
f 380 388 376
f 319 321 318
f 319 318 150
f 323 320 319
f 323 61 297
f 297 322 323
f 324 325 322
f 323 322 325
f 324 157 325
f 325 157 156
f 148 318 145
f 318 148 150
f 281 234 324
f 160 157 1
f 324 234 157
f 234 1 157
f 247 297 246
f 248 297 247
f 248 249 322
f 250 322 249
f 297 248 322
f 239 322 250
f 322 239 324
f 281 324 239
f 92 315 314
f 143 92 142
f 19 3 4
f 109 110 18
f 4 45 112
f 5 7 30
f 7 8 29
f 8 9 28
f 9 10 27
f 10 11 26
f 11 12 25
f 12 13 24
f 13 14 23
f 14 15 22
f 15 16 21
f 16 17 20
f 17 6 18
f 13 12 126
f 12 11 127
f 11 10 128
f 10 9 129
f 9 8 130
f 8 7 131
f 7 5 132
f 5 4 111
f 44 46 43
f 46 47 42
f 47 48 41
f 48 49 40
f 49 50 39
f 50 51 38
f 51 52 37
f 52 53 36
f 53 54 35
f 54 55 34
f 55 56 33
f 56 45 31
f 112 45 56
f 133 56 55
f 134 55 54
f 135 54 53
f 136 53 52
f 137 52 51
f 138 51 50
f 139 50 49
f 140 49 48
f 141 48 47
f 142 47 46
f 143 46 44
f 3 31 45
f 32 57 58
f 144 44 58
f 105 106 124
f 104 105 123
f 103 104 122
f 102 103 121
f 101 102 120
f 100 101 119
f 99 100 118
f 98 99 117
f 97 98 116
f 96 97 115
f 95 96 114
f 161 153 152
f 1 2 110
f 69 70 20
f 70 71 21
f 71 72 22
f 72 73 23
f 73 74 24
f 74 75 25
f 75 76 26
f 76 77 27
f 77 78 28
f 78 79 29
f 79 80 30
f 80 81 19
f 124 108 57
f 113 114 34
f 114 115 35
f 115 116 36
f 116 117 37
f 117 118 38
f 118 119 39
f 119 120 40
f 120 121 41
f 121 122 42
f 122 123 43
f 123 124 32
f 57 108 107
f 93 143 144
f 91 141 142
f 90 140 141
f 89 139 140
f 88 138 139
f 87 137 138
f 86 136 137
f 85 135 136
f 84 134 135
f 83 133 134
f 82 112 133
f 132 111 59
f 131 132 68
f 130 131 67
f 129 130 66
f 128 129 65
f 127 128 64
f 126 127 63
f 125 126 62
f 148 60 147
f 154 147 146
f 111 112 82
f 151 152 153
f 159 155 150
f 147 165 164
f 162 166 169
f 145 163 162
f 147 174 176
f 145 146 164
f 168 172 171
f 163 164 168
f 164 165 169
f 163 167 166
f 172 173 205
f 168 169 173
f 167 171 170
f 169 166 170
f 174 178 180
f 60 162 177
f 165 176 177
f 147 60 175
f 198 182 184
f 174 175 179
f 175 177 181
f 176 180 181
f 183 185 189
f 200 183 182
f 200 201 185
f 199 184 185
f 187 189 193
f 184 188 189
f 182 186 188
f 182 183 187
f 192 190 194
f 188 192 193
f 186 190 192
f 186 187 191
f 195 197 196
f 191 195 194
f 193 197 195
f 192 196 197
f 180 199 201
f 179 181 201
f 178 179 200
f 178 198 199
f 202 206 209
f 171 203 202
f 170 202 205
f 171 172 204
f 203 204 208
f 205 209 208
f 203 207 206
f 207 211 210
f 206 210 213
f 207 208 212
f 208 209 213
f 211 215 214
f 217 214 218
f 213 210 214
f 212 216 215
f 212 213 217
f 221 225 224
f 216 220 219
f 217 221 220
f 214 215 219
f 223 224 225
f 231 230 226
f 221 218 222
f 220 224 223
f 227 229 228
f 232 227 226
f 233 229 227
f 233 231 228
f 223 222 231
f 223 233 232
f 219 232 230
f 222 218 230
f 154 153 149
f 153 161 159
f 61 155 159
f 234 235 2
f 237 236 81
f 281 239 69
f 284 265 237
f 80 240 238
f 79 241 240
f 78 242 241
f 77 243 242
f 76 244 243
f 75 245 244
f 74 246 245
f 73 247 246
f 72 248 247
f 71 249 248
f 70 250 249
f 69 239 250
f 298 245 246
f 299 244 245
f 300 243 244
f 301 242 243
f 302 241 242
f 303 240 241
f 304 238 240
f 283 237 238
f 252 263 266
f 263 262 267
f 261 268 267
f 260 269 268
f 259 270 269
f 258 271 270
f 257 272 271
f 257 256 273
f 255 274 273
f 255 254 275
f 253 276 275
f 251 265 276
f 284 305 276
f 305 306 275
f 306 307 274
f 307 308 273
f 308 309 272
f 309 310 271
f 310 311 270
f 311 312 269
f 312 313 268
f 313 314 267
f 314 315 266
f 315 316 264
f 265 251 236
f 107 108 252
f 296 106 105
f 295 105 104
f 294 104 103
f 293 103 102
f 292 102 101
f 291 101 100
f 290 100 99
f 289 99 98
f 288 98 97
f 287 97 96
f 286 96 95
f 251 285 95
f 251 31 3
f 152 320 325
f 234 281 282
f 19 81 236
f 110 2 235
f 282 69 18
f 254 286 285
f 255 287 286
f 256 288 287
f 257 289 288
f 258 290 289
f 259 291 290
f 260 292 291
f 261 293 292
f 262 294 293
f 263 295 294
f 252 296 295
f 279 280 316
f 278 92 314
f 90 278 313
f 89 90 312
f 88 89 311
f 87 88 310
f 86 87 309
f 85 86 308
f 84 85 307
f 83 84 306
f 82 83 305
f 59 283 304
f 68 304 303
f 67 303 302
f 66 302 301
f 65 301 300
f 64 300 299
f 63 299 298
f 62 298 297
f 317 277 318
f 146 317 321
f 82 284 283
f 320 152 151
f 323 319 150
f 164 327 317
f 329 328 326
f 326 163 145
f 334 332 317
f 164 168 329
f 328 167 163
f 172 362 363
f 168 172 331
f 330 171 167
f 329 331 330
f 338 336 332
f 277 333 335
f 335 334 327
f 317 332 333
f 342 340 356
f 336 337 333
f 333 337 339
f 335 339 338
f 341 345 347
f 340 341 358
f 358 341 343
f 359 343 342
f 345 349 351
f 347 346 342
f 346 344 340
f 344 345 341
f 350 354 352
f 351 350 346
f 350 348 344
f 348 349 345
f 354 355 353
f 352 353 349
f 353 355 351
f 351 355 354
f 359 357 338
f 337 358 359
f 336 356 358
f 357 356 336
f 367 364 360
f 360 361 171
f 363 360 330
f 171 361 362
f 361 365 366
f 366 367 363
f 364 365 361
f 368 369 365
f 371 368 364
f 365 369 370
f 366 370 371
f 372 373 369
f 375 379 376
f 371 375 372
f 373 374 370
f 370 374 375
f 382 383 379
f 377 378 374
f 378 379 375
f 372 376 377
f 381 380 383
f 389 386 384
f 379 383 380
f 381 382 378
f 386 387 385
f 384 385 390
f 385 387 391
f 391 387 386
f 381 391 389
f 390 391 381
f 388 390 377
f 380 389 388
f 319 320 321
f 323 325 320
f 323 155 61
f 92 279 315
f 143 279 92
