# Blender 5.0.1
# www.blender.org
mtllib skull.mtl
o Cube
v -0.312578 -0.316491 -0.000000
v -0.789109 0.671737 -0.000000
v 0.699906 0.826668 0.000000
v 0.137369 -0.142932 0.000000
v -0.000000 1.018253 -0.000000
v -0.784414 -0.014085 -0.000000
v 0.223343 -0.192707 0.000000
v -0.502537 0.929050 -0.000000
v -0.573144 -0.277182 -0.000000
v 0.004119 -0.164559 0.000000
v 0.413334 0.999474 0.000000
v -0.878312 0.333521 -0.000000
v 0.630753 -0.301643 0.000000
v 0.448538 -0.268369 0.000000
v 0.864890 -0.294159 0.000000
v 0.737863 -0.303025 0.000000
v 0.858505 -0.121435 0.000000
v 0.812126 0.143720 0.000000
v 0.741233 0.292063 0.000000
v 0.794787 0.583976 0.000000
v 0.795484 0.434739 0.000000
v -0.312578 -0.229610 -0.473967
v -0.734529 0.671737 -0.473967
v 0.637098 0.826668 -0.541875
v 0.137369 -0.142932 -0.266077
v -0.000000 0.932433 -0.473967
v -0.729834 0.030826 -0.473967
v 0.223343 -0.192707 -0.266077
v -0.502537 0.843230 -0.473967
v -0.518564 -0.190301 -0.473967
v 0.004119 -0.119649 -0.541875
v 0.413334 0.913653 -0.541875
v -0.823731 0.333521 -0.473967
v 0.630753 -0.301643 -0.266077
v 0.448538 -0.268369 -0.266077
v 0.825215 -0.294159 -0.201480
v 0.737863 -0.303025 -0.266077
v 0.805612 -0.173832 -0.201480
v 0.841043 0.112851 0.000000
v 0.741233 0.282630 -0.100923
v 0.731979 0.583976 -0.494099
v 0.779132 0.432837 -0.463257
v 0.767316 -0.139878 -0.266077
v 0.768848 -0.057529 -0.079501
v 0.767316 -0.148046 -0.068781
v 0.687468 0.081183 -0.544298
v 0.687468 0.158163 -0.560147
v 0.687468 0.253257 -0.530713
v 0.687468 0.100051 -0.451847
v 0.687468 0.177408 -0.466941
v 0.687468 0.250992 -0.453733
v 0.687468 0.320803 -0.370716
v 0.741233 0.282630 -0.100923
v 0.741233 0.350553 -0.140545
v 0.741233 0.367534 -0.210355
v 0.762314 0.037788 -0.391470
v 0.762314 -0.005608 -0.306565
v 0.687468 0.017033 -0.170718
v 0.659052 0.090322 -0.598019
v 0.659052 -0.003983 -0.592778
v 0.687468 -0.031987 -0.549539
v 0.687468 -0.083087 -0.486647
v 0.687468 -0.135497 -0.430306
v 0.687468 -0.156461 -0.320245
v 0.778655 0.197740 -0.091783
v 0.792463 0.027661 -0.065214
v 0.755041 0.112550 -0.106069
v 0.829075 -0.164967 -0.077830
v 0.853508 -0.225130 0.000000
v -0.384240 -0.072822 -0.649207
v -0.656186 0.491138 -0.652727
v -0.205858 0.639912 -0.652727
v -0.653506 0.099754 -0.649207
v -0.492645 0.589005 -0.652727
v -0.203508 0.028261 -0.652727
v -0.707092 0.298125 -0.649207
v 0.677430 0.408939 -0.448614
v 0.528466 0.327009 -0.381137
v 0.503790 0.087138 -0.442547
v 0.585766 0.134265 -0.545504
v 0.585766 0.229358 -0.516070
v 0.504324 0.151273 -0.470623
v 0.504604 0.234856 -0.462014
v 0.632705 -0.139878 -0.266077
v 0.465125 -0.139878 -0.266077
v 0.338821 -0.139878 -0.266077
v 0.481827 0.270854 -0.120679
v 0.482767 0.321174 -0.164251
v 0.481458 0.350940 -0.216577
v 0.501563 0.026136 -0.400748
v 0.501360 -0.013453 -0.307600
v 0.498753 0.029286 -0.180863
v 0.493847 0.111856 -0.104078
v 0.602331 -0.163206 0.000000
v 0.584869 0.112851 0.000000
v 0.624641 -0.057529 -0.079501
v 0.623109 -0.148046 -0.068781
v 0.648255 0.027661 -0.065214
v -0.204683 0.326897 -0.697749
v -0.312578 -0.229610 0.473967
v -0.734529 0.671737 0.473967
v 0.637098 0.826668 0.541875
v 0.137369 -0.142932 0.266077
v -0.000000 0.932433 0.473967
v -0.729834 0.030826 0.473967
v 0.223343 -0.192707 0.266077
v -0.502537 0.843230 0.473967
v -0.518564 -0.190301 0.473967
v 0.004119 -0.119649 0.541875
v 0.413334 0.913653 0.541875
v -0.823731 0.333521 0.473967
v 0.630753 -0.301643 0.266077
v 0.448538 -0.268369 0.266077
v 0.825215 -0.294159 0.201480
v 0.737863 -0.303025 0.266077
v 0.805612 -0.173832 0.201480
v 0.741233 0.282630 0.100923
v 0.731979 0.583976 0.494099
v 0.779132 0.432837 0.463257
v 0.767316 -0.139878 0.266077
v 0.768848 -0.057529 0.079501
v 0.767316 -0.148046 0.068781
v 0.687468 0.081183 0.544298
v 0.687468 0.158163 0.560147
v 0.687468 0.253257 0.530714
v 0.687468 0.100051 0.451847
v 0.687468 0.177408 0.466941
v 0.687468 0.250992 0.453733
v 0.687468 0.320803 0.370716
v 0.741233 0.282630 0.100923
v 0.741233 0.350553 0.140545
v 0.741233 0.367534 0.210355
v 0.762314 0.037788 0.391470
v 0.762314 -0.005608 0.306566
v 0.687468 0.017033 0.170718
v 0.659052 0.090322 0.598019
v 0.659052 -0.003983 0.592778
v 0.687468 -0.031987 0.549539
v 0.687468 -0.083087 0.486647
v 0.687468 -0.135497 0.430306
v 0.687468 -0.156461 0.320245
v 0.778655 0.197740 0.091783
v 0.792463 0.027661 0.065214
v 0.755041 0.112550 0.106069
v 0.829075 -0.164967 0.077830
v -0.384240 -0.072822 0.649207
v -0.656186 0.491138 0.652727
v -0.205858 0.639912 0.652727
v -0.653506 0.099754 0.649207
v -0.492645 0.589005 0.652727
v -0.203508 0.028261 0.652727
v -0.707092 0.298125 0.649207
v 0.677430 0.408939 0.448614
v 0.528466 0.327009 0.381137
v 0.503790 0.087138 0.442547
v 0.585766 0.134265 0.545504
v 0.585766 0.229358 0.516070
v 0.504324 0.151273 0.470623
v 0.504604 0.234856 0.462014
v 0.632705 -0.139878 0.266077
v 0.465125 -0.139878 0.266077
v 0.338821 -0.139878 0.266077
v 0.481827 0.270854 0.120679
v 0.482767 0.321174 0.164251
v 0.481458 0.350940 0.216577
v 0.501563 0.026136 0.400748
v 0.501360 -0.013453 0.307600
v 0.498753 0.029286 0.180863
v 0.493847 0.111856 0.104078
v 0.624641 -0.057529 0.079501
v 0.623109 -0.148046 0.068781
v 0.648255 0.027661 0.065214
v -0.204683 0.326897 0.697749
s 0
f 13 35 34
f 12 27 6
f 7 35 14
f 25 7 4
f 16 36 15
f 26 8 5
f 13 37 16
f 6 30 9
f 29 2 8
f 69 36 68
f 22 10 1
f 30 1 9
f 18 65 19
f 24 11 3
f 10 25 4
f 20 42 41
f 2 33 12
f 11 26 5
f 41 3 20
f 19 54 21
f 17 38 43
f 83 72 77
f 55 21 54
f 47 81 48
f 78 51 52
f 48 77 42
f 64 63 57
f 82 99 83
f 56 62 49
f 39 67 65
f 30 73 70
f 66 58 67
f 57 43 64
f 57 58 44
f 49 61 46
f 65 67 40
f 71 33 23
f 22 75 31
f 72 29 26
f 76 27 33
f 74 23 29
f 38 37 43
f 36 37 38
f 72 24 41
f 24 72 32
f 26 32 72
f 42 72 41
f 31 75 60
f 50 83 82
f 83 77 81
f 60 46 61
f 56 63 62
f 49 82 79
f 42 21 55
f 55 52 42
f 42 52 48
f 52 51 48
f 48 50 47
f 84 37 34
f 47 46 59
f 79 56 49
f 35 84 34
f 85 35 86
f 28 86 35
f 64 43 84
f 74 72 99
f 99 73 76
f 25 31 28
f 28 31 86
f 31 60 86
f 61 86 60
f 64 84 63
f 63 84 62
f 61 62 85
f 84 85 62
f 85 86 61
f 58 93 67
f 93 53 67
f 56 91 57
f 53 88 54
f 58 91 92
f 88 55 54
f 56 79 90
f 89 52 55
f 77 72 42
f 83 78 82
f 39 98 66
f 98 44 66
f 45 94 17
f 45 96 97
f 95 97 96
f 70 73 75
f 81 82 83
f 43 44 45
f 30 70 22
f 76 71 99
f 71 74 99
f 49 47 50
f 59 60 75
f 75 82 80
f 80 59 75
f 80 47 59
f 82 78 79
f 89 90 78
f 90 79 78
f 90 89 91
f 89 88 91
f 88 87 91
f 93 92 87
f 91 87 92
f 13 113 14
f 12 105 111
f 113 7 14
f 7 103 4
f 114 16 15
f 8 104 5
f 115 13 16
f 6 108 105
f 2 107 8
f 145 114 69
f 10 100 1
f 1 108 9
f 18 117 39
f 11 102 3
f 10 103 109
f 20 119 21
f 2 111 101
f 11 104 110
f 3 118 20
f 131 19 21
f 120 145 17
f 159 148 173
f 132 131 21
f 157 124 125
f 128 154 129
f 125 153 157
f 141 134 140
f 173 158 159
f 133 126 139
f 144 39 142
f 108 149 105
f 135 143 144
f 134 141 120
f 134 121 135
f 126 138 139
f 142 117 144
f 111 147 101
f 100 151 146
f 107 148 104
f 105 152 111
f 101 150 107
f 116 120 115
f 114 116 115
f 148 118 102
f 102 110 148
f 104 148 110
f 119 118 148
f 109 137 151
f 127 159 128
f 159 157 153
f 137 123 136
f 133 140 134
f 126 158 127
f 119 132 21
f 132 119 129
f 119 125 129
f 129 125 128
f 125 127 128
f 115 160 112
f 124 136 123
f 155 126 133
f 160 113 112
f 161 162 113
f 106 113 162
f 141 160 120
f 150 173 148
f 173 149 151
f 103 106 109
f 106 162 109
f 109 162 137
f 138 137 162
f 141 140 160
f 140 139 160
f 138 161 139
f 160 139 161
f 161 138 162
f 135 169 168
f 130 169 144
f 133 167 166
f 130 164 163
f 135 167 134
f 132 164 131
f 133 166 155
f 129 165 132
f 153 119 148
f 159 158 154
f 39 172 95
f 121 172 143
f 94 122 17
f 122 170 121
f 170 94 95
f 146 151 149
f 158 157 159
f 120 121 134
f 108 100 146
f 152 173 147
f 147 173 150
f 126 124 123
f 136 151 137
f 151 156 158
f 156 151 136
f 156 136 124
f 158 155 154
f 165 154 166
f 166 154 155
f 166 167 165
f 165 167 164
f 164 167 163
f 169 163 168
f 167 168 163
f 13 14 35
f 12 33 27
f 7 28 35
f 25 28 7
f 16 37 36
f 26 29 8
f 13 34 37
f 6 27 30
f 29 23 2
f 68 17 69
f 69 15 36
f 36 38 68
f 22 31 10
f 30 22 1
f 18 39 65
f 65 40 19
f 24 32 11
f 10 31 25
f 20 21 42
f 2 23 33
f 11 32 26
f 41 24 3
f 19 53 54
f 43 45 17
f 17 68 38
f 83 99 72
f 47 80 81
f 78 83 51
f 48 81 77
f 82 75 99
f 39 66 67
f 30 27 73
f 66 44 58
f 49 62 61
f 71 76 33
f 22 70 75
f 72 74 29
f 76 73 27
f 74 71 23
f 50 51 83
f 60 59 46
f 56 57 63
f 49 50 82
f 48 51 50
f 84 43 37
f 35 85 84
f 99 75 73
f 58 92 93
f 93 87 53
f 56 90 91
f 53 87 88
f 58 57 91
f 88 89 55
f 89 78 52
f 39 95 98
f 98 96 44
f 45 97 94
f 45 44 96
f 96 98 95
f 95 94 97
f 81 80 82
f 43 57 44
f 49 46 47
f 13 112 113
f 12 6 105
f 113 106 7
f 7 106 103
f 114 115 16
f 8 107 104
f 115 112 13
f 6 9 108
f 2 101 107
f 69 17 145
f 145 116 114
f 114 15 69
f 10 109 100
f 1 100 108
f 18 19 117
f 117 142 39
f 11 110 102
f 10 4 103
f 20 118 119
f 2 12 111
f 11 5 104
f 3 102 118
f 131 130 19
f 17 122 120
f 120 116 145
f 159 153 148
f 157 156 124
f 128 159 154
f 125 119 153
f 173 151 158
f 144 143 39
f 108 146 149
f 135 121 143
f 126 123 138
f 111 152 147
f 100 109 151
f 107 150 148
f 105 149 152
f 101 147 150
f 127 158 159
f 137 138 123
f 133 139 140
f 126 155 158
f 125 124 127
f 115 120 160
f 160 161 113
f 173 152 149
f 135 144 169
f 130 163 169
f 133 134 167
f 130 131 164
f 135 168 167
f 132 165 164
f 129 154 165
f 39 143 172
f 121 170 172
f 94 171 122
f 122 171 170
f 95 172 170
f 170 171 94
f 158 156 157
f 120 122 121
f 126 127 124
l 40 53
l 117 130
o Cube.001
v -0.017514 -0.101732 -0.364446
v 0.706569 -0.826702 0.000000
v 0.820264 -0.744346 0.000000
v 0.812932 -0.634742 0.000000
v 0.831842 -0.493105 0.000000
v 0.377805 -0.437360 -0.364446
v 0.339212 -0.376769 -0.364446
v 0.361392 -0.098298 -0.385174
v 0.262980 -0.104087 -0.385174
v 0.236940 -0.181874 -0.364446
v 0.161684 -0.191522 -0.364446
v 0.078709 -0.065731 -0.364446
v 0.792347 -0.811348 0.000000
v 0.152239 -0.723051 -0.208112
v -0.012701 -0.106920 -0.439896
v 0.701756 -0.815724 -0.110423
v 0.792347 -0.805559 -0.131151
v 0.083522 -0.070919 -0.439896
v 0.820264 -0.725050 -0.229564
v 0.690133 -0.577790 -0.347164
v 0.746226 -0.488334 -0.328076
v 0.382618 -0.442548 -0.439896
v 0.344025 -0.381957 -0.439896
v 0.361392 -0.098298 -0.439896
v 0.262980 -0.104087 -0.439896
v 0.241754 -0.187062 -0.439896
v 0.166497 -0.196710 -0.439896
v 0.762035 -0.467827 0.000000
v 0.581607 -0.476921 -0.272475
v -0.017514 -0.101732 0.364446
v 0.377805 -0.437360 0.364446
v 0.339212 -0.376769 0.364446
v 0.361392 -0.098298 0.385174
v 0.262980 -0.104087 0.385174
v 0.236940 -0.181874 0.364446
v 0.161684 -0.191522 0.364446
v 0.078709 -0.065731 0.364446
v 0.152239 -0.723051 0.208112
v -0.012701 -0.106920 0.439896
v 0.701756 -0.815724 0.110423
v 0.792347 -0.805559 0.131151
v 0.083522 -0.070919 0.439896
v 0.820264 -0.725050 0.229564
v 0.690133 -0.577790 0.347164
v 0.746226 -0.488334 0.328076
v 0.382618 -0.442548 0.439896
v 0.344025 -0.381957 0.439896
v 0.361392 -0.098298 0.439896
v 0.262980 -0.104087 0.439896
v 0.241754 -0.187062 0.439896
v 0.166497 -0.196710 0.439896
v 0.581607 -0.476921 0.272475
s 1
f 181 183 180
f 188 187 174
f 176 175 186
f 199 197 196
f 188 200 187
f 196 195 187
f 187 193 189
f 193 195 194
f 189 192 190
f 200 196 187
f 194 179 202
f 179 196 180
f 196 181 180
f 189 186 175
f 197 182 181
f 182 199 183
f 185 188 174
f 190 176 186
f 183 200 184
f 192 177 176
f 184 191 185
f 177 194 178
f 174 187 185
f 185 187 184
f 184 187 183
f 180 187 179
f 202 187 189
f 189 201 202
f 208 206 205
f 212 203 211
f 221 223 220
f 224 212 211
f 220 211 219
f 211 213 217
f 219 217 218
f 216 213 214
f 220 224 211
f 225 219 218
f 204 220 219
f 206 220 205
f 186 213 175
f 207 221 206
f 207 223 222
f 210 212 215
f 176 214 186
f 208 224 223
f 177 216 176
f 209 215 224
f 177 218 217
f 203 210 211
f 210 209 211
f 209 208 211
f 211 205 204
f 225 211 204
f 213 201 175
f 181 182 183
f 176 177 175
f 199 198 197
f 188 191 200
f 193 187 195
f 189 193 192
f 200 199 196
f 201 178 194
f 194 195 179
f 202 201 194
f 179 195 196
f 196 197 181
f 189 190 186
f 197 198 182
f 182 198 199
f 185 191 188
f 190 192 176
f 183 199 200
f 192 193 177
f 184 200 191
f 177 193 194
f 180 183 187
f 202 179 187
f 189 175 201
f 208 207 206
f 221 222 223
f 224 215 212
f 219 211 217
f 216 217 213
f 220 223 224
f 218 178 201
f 225 204 219
f 218 201 225
f 204 205 220
f 206 221 220
f 186 214 213
f 207 222 221
f 207 208 223
f 210 203 212
f 176 216 214
f 208 209 224
f 177 217 216
f 209 210 215
f 177 178 218
f 211 208 205
f 225 213 211
f 213 225 201
